<svg width="25" height="24" viewBox="0 0 25 24" fill="none" xmlns="http://www.w3.org/2000/svg">
<path d="M22.4624 7.54597L10.4624 19.546C10.3579 19.6509 10.2337 19.7341 10.0969 19.7909C9.9602 19.8476 9.81359 19.8769 9.66553 19.8769C9.51746 19.8769 9.37085 19.8476 9.2341 19.7909C9.09736 19.7341 8.97317 19.6509 8.86865 19.546L3.61865 14.296C3.514 14.1913 3.43099 14.0671 3.37436 13.9304C3.31772 13.7936 3.28857 13.6471 3.28857 13.4991C3.28857 13.3511 3.31772 13.2046 3.37436 13.0678C3.43099 12.9311 3.514 12.8069 3.61865 12.7022C3.7233 12.5976 3.84753 12.5146 3.98426 12.4579C4.12099 12.4013 4.26753 12.3721 4.41553 12.3721C4.56352 12.3721 4.71006 12.4013 4.84679 12.4579C4.98352 12.5146 5.10775 12.5976 5.2124 12.7022L9.66646 17.1563L20.8705 5.9541C21.0819 5.74276 21.3685 5.62402 21.6674 5.62402C21.9663 5.62402 22.2529 5.74276 22.4643 5.9541C22.6756 6.16544 22.7944 6.45209 22.7944 6.75098C22.7944 7.04986 22.6756 7.33651 22.4643 7.54785L22.4624 7.54597Z" fill="#23A6F0"/>
</svg>
